<svg xmlns="http://www.w3.org/2000/svg"  viewBox="0 0 50 50" width="50px" height="50px">
<path fill="#000000" d="M 9 4 C 6.2504839 4 4 6.2504839 4 9 L 4 41 C 4 43.749516 6.2504839 46 9 46 L 41 46 C 43.749516 46 46 43.749516 46 41 L 46 9 C 46 6.2504839 43.749516 4 41 4 L 9 4 z M 9 6 L 41 6 C 42.668484 6 44 7.3315161 44 9 L 44 41 C 44 42.668484 42.668484 44 41 44 L 9 44 C 7.3315161 44 6 42.668484 6 41 L 6 9 C 6 7.3315161 7.3315161 6 9 6 z M 17 9 L 17 12 L 10 12 L 11 20 L 10 38 L 17 36 L 17 42 L 26 40 L 26 35 L 40 36 L 39 19 L 40 12 L 32.333984 12 L 33 9 L 17 9 z M 19 11 L 30.507812 11 L 29.396484 16 L 24 16 L 24 23 L 29 23 L 29 28 L 24 28 L 24 38.396484 L 19 39.507812 L 19 11 z M 12.265625 14 L 17 14 L 17 33.919922 L 12.152344 35.304688 L 13.007812 19.931641 L 12.265625 14 z M 31.888672 14 L 37.693359 14 L 36.992188 18.916016 L 37.869141 33.84375 L 26 33 L 26 30 L 31 30 L 31 21 L 26 21 L 26 18 L 31 18 L 31.888672 14 z"/></svg>