<svg xmlns="http://www.w3.org/2000/svg"  viewBox="0 0 50 50" width="50px" height="50px"><path fill="#000000" d="M 21.416016 3 C 14.902928 3 8.9348094 5.3282165 4.3554688 9.1796875 A 1.0001 1.0001 0 0 0 5.0253906 10.945312 C 5.0253906 10.945312 11.378258 10.822929 14.421875 16.193359 C 13.228316 16.380151 11.611496 16.771078 9.6367188 17.876953 C 6.2935036 19.749154 2.5739518 23.546168 1.0214844 30.791016 A 1.0001 1.0001 0 0 0 2.4960938 31.869141 C 2.4960938 31.869141 8.1403338 28.766854 13.542969 30.966797 C 13.010049 31.534826 12.394902 32.236697 11.777344 33.328125 C 10.363374 35.827074 9 39.852917 9 46 A 1.0001 1.0001 0 0 0 10.791016 46.611328 C 10.791016 46.611328 12.1816 44.797733 15.25 43.349609 C 18.113462 41.998205 22.376216 41.00763 28.287109 42.380859 C 28.64759 42.488231 29.014585 42.58219 29.388672 42.662109 C 29.453242 42.679742 29.515136 42.692747 29.580078 42.710938 L 29.582031 42.703125 C 30.522875 42.890824 31.496957 43 32.5 43 C 35.832956 43 38.917565 42.223829 41.228516 40.503906 C 43.278273 38.978376 44.65353 36.670722 44.939453 33.751953 C 44.991832 33.735869 45.043151 33.728703 45.095703 33.710938 C 47.000703 33.066937 48.277219 31.553031 47.949219 30.332031 C 47.779883 29.703585 47.21399 29.279631 46.449219 29.099609 C 46.550268 28.668846 46.645893 28.230144 46.720703 27.771484 C 47.043438 25.790924 47.052482 23.978288 46.714844 22.494141 C 46.629073 22.117074 46.515992 21.751922 46.375 21.410156 C 49.509829 18.120282 48.972656 13.179688 48.972656 13.179688 L 48.914062 12.533203 L 48.300781 12.324219 C 47.152901 11.931274 45.868472 11.911424 44.642578 12.054688 C 43.62332 12.173801 42.680189 12.405495 41.855469 12.626953 C 37.062335 6.7601856 29.68607 3 21.416016 3 z M 21.416016 5 C 31.358674 5 39.862637 10.854508 43.564453 19.183594 C 43.053057 19.160555 42.548007 19.259529 42.109375 19.472656 C 41.462376 19.787026 40.943718 20.287561 40.494141 20.875 C 39.594985 22.049879 38.939642 23.618398 38.419922 25.277344 C 38.298213 25.665959 38.111914 26.080172 37.896484 26.333984 C 37.681055 26.587797 37.517227 26.703125 37.125 26.703125 C 36.834333 26.703125 36 26.287275 36 24.511719 C 36.00009 18.824673 32.793335 15 29.125 15 C 27.130607 15 25.512065 16.331672 24.511719 18.169922 C 23.511373 20.008172 23 22.413955 23 25.044922 C 23 26.450599 23.223341 27.77705 23.597656 28.998047 C 23.445965 28.985798 23.294428 28.966656 23.142578 28.96875 C 22.649908 28.97555 22.158419 29.06394 21.681641 29.269531 C 21.1648 29.492375 20.674466 29.933304 20.392578 30.513672 C 20.110691 31.09404 20 31.775893 20 32.609375 C 20 35.40688 21.315646 37.898433 23.421875 39.744141 C 19.659427 39.654056 16.645482 40.479606 14.396484 41.541016 C 13.006223 42.197146 12.09919 42.918743 11.267578 43.582031 C 11.594487 39.305367 12.490589 36.127527 13.517578 34.3125 C 14.751108 32.132449 15.830078 31.486328 15.830078 31.486328 A 1.0001 1.0001 0 0 0 15.794922 29.777344 C 11.082454 27.050922 6.2486538 28.249792 3.5917969 29.259766 C 5.215362 23.921224 8.0261233 21.071855 10.613281 19.623047 C 13.520066 17.995247 16 18 16 18 A 1.0001 1.0001 0 0 0 16.927734 16.625 C 14.835346 11.442962 10.450496 9.8783858 7.6074219 9.3300781 C 11.528039 6.6468965 16.250591 5 21.416016 5 z M 21.880859 8 L 21.580078 8.3867188 C 18.663603 12.13932 20.595703 17.326172 20.595703 17.326172 L 22.486328 16.673828 C 22.486328 16.673828 21.349195 12.776876 22.943359 10.109375 C 23.649534 10.160915 25.715982 10.42102 28.304688 12.919922 L 29.695312 11.480469 C 26.140637 8.049107 22.369141 8 22.369141 8 L 21.880859 8 z M 45.732422 14.121094 C 46.159262 14.11571 46.563812 14.13499 46.925781 14.185547 C 46.936396 15.05933 46.872144 17.192104 45.683594 19.056641 C 45.010136 17.411265 44.176321 15.845521 43.183594 14.390625 C 44.013808 14.237276 44.912008 14.131441 45.732422 14.121094 z M 29.125 17 C 31.348665 17 34 19.558761 34 24.511719 C 34 26.992162 35.415667 28.703125 37.125 28.703125 C 37.922366 28.703125 38.601579 28.374699 39.097656 27.941406 C 39.21004 28.444682 39.415875 28.785292 39.710938 28.859375 C 40.407938 29.034375 41.201953 27.764453 41.626953 25.814453 C 41.916059 24.487969 41.946805 23.316467 41.722656 22.638672 C 41.841542 22.443645 41.960821 22.248223 42.082031 22.089844 C 42.405329 21.667408 42.724702 21.396708 42.982422 21.271484 C 43.239454 21.146595 43.41982 21.125618 43.707031 21.212891 C 44.074279 21.325081 44.508769 21.816897 44.763672 22.9375 C 45.018574 24.058103 45.037361 25.661779 44.746094 27.449219 C 44.647179 28.055662 44.512497 28.623104 44.363281 29.166016 C 44.211291 29.203752 44.060225 29.23701 43.90625 29.289062 C 43.061171 29.574748 42.352463 30.036365 41.839844 30.5625 C 41.085601 30.513912 40.384784 30.667671 39.740234 30.875 C 38.296959 31.339252 37.030608 32 35.375 32 C 32.219768 32 29.74267 31.065484 27.613281 30.21875 C 27.03269 29.987883 26.480877 29.769812 25.941406 29.574219 C 25.362278 28.290791 25 26.739397 25 25.044922 C 25 22.680889 25.488627 20.561953 26.269531 19.126953 C 27.050435 17.691953 27.994393 17 29.125 17 z M 29.363281 21.103516 C 28.666281 20.927516 27.764844 22.243359 27.339844 24.193359 C 26.914844 26.143359 27.138938 27.744922 27.835938 27.919922 C 28.532937 28.094922 29.326953 26.825 29.751953 24.875 C 30.176953 22.925 30.059281 21.277516 29.363281 21.103516 z M 23.1875 30.964844 C 23.457693 30.963198 23.767353 31.007469 24.136719 31.097656 C 24.875449 31.278019 25.798319 31.649992 26.875 32.078125 C 29.028361 32.934391 31.822232 34 35.375 34 C 37.552392 34 39.161291 33.160841 40.353516 32.777344 C 40.609041 32.69515 40.831478 32.645028 41.046875 32.605469 C 41.051434 32.625858 41.047299 32.647734 41.052734 32.667969 C 41.239991 33.365042 41.917271 33.804498 42.8125 33.943359 C 42.523239 36.128447 41.571803 37.75479 40.035156 38.898438 C 38.183857 40.276265 35.518044 41 32.5 41 C 31.610042 41 30.754496 40.902699 29.935547 40.738281 C 29.522664 40.625303 29.115371 40.520037 28.714844 40.427734 C 24.744768 39.196754 22 36.103898 22 32.609375 C 22 31.963857 22.09954 31.575851 22.191406 31.386719 C 22.283266 31.197586 22.33045 31.167625 22.474609 31.105469 C 22.686581 31.014063 22.917307 30.966489 23.1875 30.964844 z M 25.810547 33.447266 L 24.189453 34.621094 C 26.116006 37.278715 29.355085 39 33 39 L 33 37 C 29.984915 37 27.351994 35.573644 25.810547 33.447266 z"/></svg>